<?xml version="1.0" standalone="no"?>
<!DOCTYPE svg PUBLIC "-//W3C//DTD SVG 20010904//EN"
 "http://www.w3.org/TR/2001/REC-SVG-20010904/DTD/svg10.dtd">
<svg version="1.0" xmlns="http://www.w3.org/2000/svg"
 width="624.000000pt" height="624.000000pt" viewBox="0 0 624.000000 624.000000"
 preserveAspectRatio="xMidYMid meet">
<metadata>
Created by potrace 1.14, written by Peter Selinger 2001-2017
</metadata>
<g transform="translate(0.000000,624.000000) scale(0.100000,-0.100000)"
fill="#000000" stroke="none">
<path d="M3125 6224 c-27 -8 -61 -15 -75 -18 -58 -10 -294 -80 -415 -122 -71
-24 -134 -46 -140 -48 -5 -2 -19 -7 -30 -11 -11 -4 -54 -21 -95 -37 -114 -45
-429 -192 -440 -206 -3 -4 -27 -18 -55 -32 -58 -29 -156 -87 -238 -141 -32
-22 -62 -39 -67 -39 -5 0 -10 -3 -12 -7 -1 -5 -32 -28 -68 -53 -75 -51 -65
-44 -190 -146 -95 -77 -311 -289 -383 -374 -80 -97 -178 -250 -172 -269 3 -11
8 -28 10 -38 4 -19 57 -157 80 -208 7 -16 26 -59 41 -95 16 -36 67 -139 113
-230 46 -91 89 -175 95 -187 6 -13 14 -23 19 -23 4 0 7 -4 7 -10 0 -12 90
-166 152 -257 26 -40 48 -77 48 -83 0 -5 4 -10 8 -10 4 0 16 -14 26 -31 26
-44 196 -272 212 -285 8 -6 14 -14 14 -18 0 -4 6 -13 13 -21 6 -7 41 -46 77
-86 166 -186 400 -393 400 -355 0 3 -4 16 -9 29 -9 23 -17 61 -26 117 -2 14
-6 36 -9 50 -28 122 -28 522 0 710 2 19 5 42 6 50 0 8 5 38 10 65 5 28 11 65
14 84 2 19 6 37 8 40 3 4 7 26 11 51 4 25 8 47 10 51 2 3 7 21 10 40 10 59 63
250 100 359 19 58 37 113 39 122 3 9 10 27 17 40 7 13 11 23 10 23 -4 0 59
167 88 230 10 22 29 65 42 95 41 94 228 460 240 470 3 3 13 19 22 36 14 26
103 172 137 224 50 75 178 261 197 285 13 17 27 35 31 40 4 6 19 26 32 45 14
19 27 37 30 40 33 33 125 157 116 157 -6 0 -33 -6 -61 -13z"/>
<path d="M3268 5952 c-18 -20 -51 -59 -73 -87 -22 -27 -46 -56 -52 -65 -7 -8
-37 -49 -67 -90 -31 -41 -59 -80 -63 -85 -27 -35 -93 -137 -93 -144 0 -5 -4
-11 -8 -13 -9 -3 -138 -214 -199 -323 -29 -51 -187 -371 -213 -430 -24 -54
-72 -172 -76 -185 -2 -8 -28 -87 -58 -175 -30 -88 -53 -161 -51 -163 2 -2 0
-15 -5 -28 -10 -24 -15 -47 -25 -101 -13 -73 -18 -101 -21 -135 -2 -21 -4 -41
-5 -45 -4 -22 6 -16 61 37 33 32 86 78 118 102 31 23 59 46 60 51 2 4 10 7 17
7 7 0 15 3 17 8 5 10 97 72 108 72 6 0 10 5 10 12 0 6 3 9 6 6 3 -4 22 5 42
19 74 50 462 228 517 237 6 1 15 4 20 7 9 6 75 29 100 36 6 1 66 19 135 38 69
20 132 38 140 40 8 2 33 8 55 14 22 5 54 13 70 15 17 3 40 8 53 11 35 8 54 12
92 19 19 3 46 8 60 11 14 3 41 7 60 10 19 3 46 7 60 9 14 3 48 7 75 10 28 3
68 8 90 11 330 44 942 39 1285 -10 14 -2 48 -6 75 -10 75 -9 115 -15 174 -25
30 -6 56 -8 58 -6 4 4 -332 344 -392 397 -134 116 -340 279 -355 279 -5 0 -10
4 -10 9 0 8 -56 48 -122 87 -10 6 -26 18 -36 27 -10 10 -21 17 -25 17 -3 0
-40 23 -81 50 -42 28 -80 50 -85 50 -5 0 -11 3 -13 8 -4 9 -35 26 -214 116
-151 76 -178 88 -318 143 -50 19 -100 39 -111 43 -75 31 -344 99 -450 115 -23
3 -52 8 -65 10 -14 3 -63 8 -110 11 -47 3 -95 7 -107 9 -15 2 -32 -8 -55 -33z"/>
<path d="M459 4755 c-1 -11 -1 -23 0 -27 0 -5 -3 -8 -9 -8 -5 0 -10 -8 -10
-17 0 -10 -10 -47 -21 -83 -11 -36 -22 -72 -24 -80 -2 -8 -15 -62 -30 -120
-14 -58 -28 -116 -31 -130 -30 -153 -45 -232 -49 -265 -2 -22 -7 -51 -10 -65
-3 -14 -7 -47 -10 -75 -3 -27 -7 -66 -10 -85 -25 -204 -26 -906 -1 -949 2 -3
7 -31 10 -62 4 -31 8 -65 10 -75 2 -11 11 -59 21 -108 9 -49 28 -130 41 -180
14 -50 29 -104 34 -121 7 -29 13 -46 27 -82 3 -10 7 -22 9 -28 5 -20 62 -151
95 -220 35 -74 45 -88 69 -93 25 -6 64 -14 80 -16 8 -1 38 -6 65 -10 28 -4 64
-9 80 -11 17 -3 39 -6 50 -9 11 -2 56 -7 100 -11 44 -3 97 -9 119 -11 134 -18
666 -18 791 0 22 3 72 8 110 11 39 3 81 8 95 10 14 2 48 6 75 10 44 5 77 10
185 29 14 2 66 14 115 26 50 12 97 23 106 25 65 14 181 54 322 113 37 16 49
32 23 32 -31 0 -237 75 -336 122 -425 202 -864 583 -1267 1098 -49 63 -96 126
-103 140 -7 14 -16 27 -20 30 -14 10 -153 224 -225 347 -41 70 -80 135 -85
143 -61 95 -326 665 -351 755 -5 17 -15 40 -24 50 -14 20 -14 20 -16 0z"/>
<path d="M4518 4484 c-2 -1 -55 -5 -118 -9 -148 -9 -177 -11 -225 -19 -22 -3
-60 -8 -85 -11 -219 -22 -538 -105 -723 -188 -76 -34 -76 -33 8 -51 59 -13
188 -62 281 -107 181 -87 364 -205 563 -365 130 -105 400 -364 496 -478 28
-32 55 -64 60 -70 6 -6 28 -33 50 -61 22 -27 42 -52 46 -55 11 -10 177 -237
220 -300 24 -36 47 -66 51 -68 5 -2 8 -8 8 -13 0 -6 22 -42 48 -82 27 -40 51
-79 55 -87 4 -8 18 -33 31 -55 121 -196 281 -521 390 -790 20 -49 41 -99 45
-110 5 -11 12 -29 16 -40 8 -21 8 -21 50 115 20 64 15 47 60 225 19 77 37 158
40 180 4 22 10 56 15 75 5 19 11 55 14 80 3 25 7 54 10 65 2 11 7 43 10 70 4
28 9 68 12 90 35 265 39 700 9 960 -3 28 -8 64 -9 80 -4 32 -17 120 -21 145
-16 81 -39 181 -60 255 -14 50 -27 99 -30 110 -3 11 -14 45 -26 75 -11 30 -22
60 -23 65 -10 35 -86 205 -101 225 -6 8 -16 26 -22 41 -10 22 -20 27 -94 38
-46 8 -93 15 -104 17 -11 2 -40 6 -65 9 -25 3 -61 8 -80 11 -19 3 -64 7 -100
10 -36 3 -90 8 -120 10 -59 5 -578 13 -582 8z"/>
<path d="M4150 3502 c0 -6 4 -22 9 -35 5 -13 12 -39 16 -58 6 -32 8 -48 20
-121 25 -149 25 -451 1 -663 -15 -130 -19 -152 -42 -265 -9 -41 -17 -84 -19
-95 -12 -73 -77 -303 -127 -450 -27 -82 -50 -156 -51 -162 0 -7 -3 -13 -7 -13
-4 0 -13 -19 -19 -42 -7 -24 -23 -65 -35 -93 -104 -232 -142 -314 -189 -405
-67 -130 -91 -174 -97 -180 -3 -3 -11 -16 -18 -30 -29 -59 -171 -289 -194
-314 -10 -11 -18 -25 -18 -31 0 -6 -8 -20 -17 -31 -10 -11 -34 -42 -52 -69
-46 -66 -212 -289 -221 -295 -3 -3 -19 -23 -35 -45 -17 -22 -34 -43 -40 -47
-17 -13 6 -9 135 23 69 17 130 32 135 33 80 19 371 117 495 166 239 95 492
218 675 329 94 57 266 171 288 192 12 10 24 19 28 19 18 0 243 194 349 300
120 120 165 169 214 236 17 21 32 41 35 44 4 3 11 12 16 21 6 9 27 42 48 73
l37 57 -26 77 c-43 124 -140 345 -226 514 -67 131 -120 225 -278 487 -8 14
-18 30 -23 35 -4 6 -45 65 -91 131 -47 66 -88 125 -93 130 -4 6 -35 44 -68 85
-91 114 -110 135 -250 275 -151 152 -265 245 -265 217z"/>
<path d="M3869 2336 c-177 -168 -454 -332 -779 -461 -122 -48 -339 -121 -386
-130 -11 -2 -19 -4 -19 -5 0 -2 -14 -5 -53 -14 -13 -3 -32 -8 -42 -11 -30 -10
-341 -73 -390 -80 -200 -27 -219 -29 -325 -40 -258 -25 -684 -25 -970 0 -126
11 -173 16 -197 21 -14 3 -43 7 -65 9 -52 6 -101 12 -143 20 -19 3 -53 8 -74
10 l-40 5 50 -52 c224 -232 349 -347 559 -512 61 -47 115 -90 120 -94 6 -4 57
-40 115 -80 58 -39 110 -75 115 -79 11 -9 169 -103 260 -155 33 -19 119 -62
190 -97 72 -34 142 -69 158 -77 15 -8 27 -13 27 -9 0 3 14 -2 31 -10 29 -15
206 -82 239 -90 8 -2 49 -14 90 -25 41 -12 83 -23 93 -25 10 -3 27 -7 37 -10
17 -5 93 -19 165 -31 17 -2 39 -7 50 -9 12 -2 67 -7 123 -11 100 -6 103 -6
125 18 43 47 144 173 205 258 34 47 69 95 79 108 9 12 35 53 59 90 23 37 46
72 51 77 35 43 173 290 276 495 141 282 267 610 303 793 2 10 5 26 8 35 3 9 8
33 11 52 3 19 8 49 10 65 7 39 15 125 12 125 -1 -1 -36 -34 -78 -74z"/>
</g>
</svg>
