<svg xmlns="http://www.w3.org/2000/svg" xmlns:xlink="http://www.w3.org/1999/xlink" width="150" height="39" viewBox="0 0 150 39">
  <defs>
    <polygon id="prefix__logo_white-a" points="0 38.735 149.93 38.735 149.93 0 0 0"/>
  </defs>
  <g fill="none" fill-rule="evenodd">
    <path fill="#FFF" d="M55.0647351 28.9934437L40.3958609 28.9934437 40.3958609 25.6480795 55.0624172 25.6480795C56.1700331 25.6480795 57.0528146 25.3699338 57.7140728 24.8189404 58.3193709 24.2997351 58.6233444 23.6838411 58.6233444 22.970596 58.6233444 22.2576821 58.330298 21.6586755 57.7399007 21.1762252 57.0809603 20.6421192 56.1892384 20.3729139 55.0624172 20.3729139L45.9640728 20.3729139C44.0726821 20.3729139 42.5713576 19.8215894 41.4663907 18.7143046 40.467053 17.7149669 39.967053 16.4937748 39.967053 15.0480795 39.967053 13.6202649 40.467053 12.407351 41.4663907 11.4076821 42.5713576 10.3007285 44.0706954 9.74907285 45.9620861 9.74907285L60.4971854 9.74907285 60.4971854 13.0944371 45.9620861 13.0944371C45.2465232 13.0944371 44.6846026 13.2904636 44.275 13.6825166 43.8637417 14.0768874 43.659106 14.5394702 43.659106 15.0742384 43.659106 15.6103311 43.8468543 16.0563576 44.2213576 16.4139735 44.6498344 16.8229139 45.2293046 17.0278808 45.9620861 17.0278808L55.0624172 17.0278808C57.1150662 17.0278808 58.7587748 17.6527152 59.9889073 18.9017219 61.0961921 20.0434437 61.6495033 21.4265563 61.6495033 23.0503974 61.6495033 24.6745695 61.1048013 26.0404636 60.0167219 27.1474172 58.8021523 28.3772185 57.1521523 28.9934437 55.0647351 28.9934437M74.5610596 27.976457L68.112053 15.5569205 65.3266225 29.0453311 61.5527815 29.0453311 65.8372185 11.3824172C66.1236424 10.2039404 66.7915232 9.57049669 67.8445033 9.47976821 68.6117219 9.40890728 69.3355629 10.042351 70.0140397 11.3797682L76.4564238 23.952947 82.8839073 11.3542715C83.5607285 10.0334106 84.2842384 9.40890728 85.0511258 9.47976821 86.1044371 9.57049669 86.7746358 10.195 87.0607285 11.3542715L91.3428477 29.0453311 87.5693377 29.0453311 84.7862252 15.5569205 78.3345695 27.976457C77.8888742 28.831755 77.2835762 29.2605629 76.5166887 29.2605629 75.6597351 29.2605629 75.0090728 28.831755 74.5610596 27.976457M95.7977152 28.9934437L92.4520199 28.9934437 92.4520199 9.74907285 106.261954 9.74907285C108.672219 9.74907285 110.589437 10.4709272 112.017252 11.9162914 113.301026 13.2196026 113.945397 14.8090066 113.945397 16.6831788 113.945397 18.5570199 113.301026 20.1444371 112.017252 21.4477483 110.589437 22.875894 108.663609 23.5891391 106.235464 23.5891391L97.7791722 23.5891391 97.7791722 20.2437748 106.770563 20.2437748C108.000033 20.2437748 108.982152 19.8689404 109.712285 19.1192715 110.373874 18.4407947 110.703675 17.6199338 110.703675 16.6553642 110.703675 15.6924503 110.373874 14.8715894 109.712285 14.1931126 108.999371 13.4603311 108.017252 13.0944371 106.770563 13.0944371L95.7977152 13.0944371 95.7977152 28.9934437z"/>
    <polygon fill="#FFF" points="124.502 13.095 124.502 28.994 121.157 28.994 121.157 13.095 113.558 13.095 113.558 9.749 132.08 9.749 132.08 13.095"/>
    <mask id="prefix__logo_white-b" fill="#fff">
      <use xlink:href="#prefix__logo_white-a"/>
    </mask>
    <polygon fill="#FFF" points="138.073 20.909 149.073 20.909 149.073 17.564 138.073 17.564" mask="url(#prefix__logo_white-b)"/>
    <polygon fill="#FFF" points="136.655 25.648 149.93 25.648 149.93 28.994 133.308 28.994 133.308 9.749 149.93 9.749 149.93 13.094 136.655 13.094" mask="url(#prefix__logo_white-b)"/>
    <path fill="#10EB10" d="M2.09963576,9.19831126 C0.107582781,15.2466556 -3.31125828e-05,22.5016225 2.58771523,27.2165232 C6.68142384,28.1009603 13.6754636,27.9734768 17.3496358,26.1562583 C12.8695033,25.210894 5.82844371,19.3161921 2.09963576,9.19831126" mask="url(#prefix__logo_white-b)"/>
    <path fill="#EB10EB" d="M19.1526159,-0.000132450331 C12.9185099,1.2992053 6.58175497,4.83331126 3.79268212,9.43165563 C5.07380795,13.4190728 8.68076159,19.4121192 12.0913576,21.6859603 C10.6708278,17.3333113 12.2546026,8.28794702 19.1526159,-0.000132450331" mask="url(#prefix__logo_white-b)"/>
    <path fill="#EB1010" d="M35.6451987,10.1692053 C31.4028146,5.41986755 25.1740066,1.69933775 19.7968543,1.58311258 C16.9842715,4.68576159 13.5975166,10.8062914 13.3342715,14.8970199 C16.3932119,11.4903974 25.0183775,8.33940397 35.6451987,10.1692053" mask="url(#prefix__logo_white-b)"/>
    <path fill="#1010EB" d="M34.5962252,11.5188079 C30.5031788,10.6343709 23.5091391,10.7615232 19.8346358,12.5787417 C24.3147682,13.524106 31.3561589,19.4188079 35.0849669,29.5366887 C37.0763576,23.4883444 37.1843046,16.2333775 34.5962252,11.5188079 Z" mask="url(#prefix__logo_white-b)"/>
    <path fill="#EBEB10" d="M18.0316556,38.7349669 C24.2657616,37.4359603 30.6025166,33.9015232 33.3915894,29.3031788 C32.1107947,25.3160927 28.5035099,19.3230464 25.0929139,17.0488742 C26.5137748,21.4018543 24.9296689,30.4472185 18.0316556,38.7349669" mask="url(#prefix__logo_white-b)"/>
    <path fill="#10EBEB" d="M17.3877483,37.1523841 C20.2,34.049404 23.586755,27.9288742 23.85,23.8381457 C20.7910596,27.2447682 12.165894,30.3954305 1.53907285,28.5659603 C5.78178808,33.315298 12.0102649,37.0361589 17.3877483,37.1523841 Z" mask="url(#prefix__logo_white-b)"/>
    <path fill="#10EB10" d="M2.09963576,9.19831126 C0.107582781,15.2466556 -3.31125828e-05,22.5016225 2.58771523,27.2165232 C6.68142384,28.1009603 13.6754636,27.9734768 17.3496358,26.1562583 C12.8695033,25.210894 5.82844371,19.3161921 2.09963576,9.19831126" mask="url(#prefix__logo_white-b)"/>
  </g>
</svg>
